<?xml version="1.0" encoding="UTF-8" standalone="no"?>
<!-- Created with Inkscape (http://www.inkscape.org/) -->
<svg id="svg5439" xmlns:rdf="http://www.w3.org/1999/02/22-rdf-syntax-ns#" xmlns="http://www.w3.org/2000/svg" xmlns:osb="http://www.openswatchbook.org/uri/2009/osb" height="150.69mm" width="225.78mm" version="1.1" xmlns:cc="http://creativecommons.org/ns#" xmlns:xlink="http://www.w3.org/1999/xlink" viewBox="0 0 799.99998 533.92587" xmlns:dc="http://purl.org/dc/elements/1.1/">
 <title id="title3517">TTH-old_style_TV</title>
 <defs id="defs5441">
  <linearGradient id="linearGradient4816" y2="609.79" gradientUnits="userSpaceOnUse" x2="247.75" gradientTransform="translate(.10451 .018074)" y1="517.82" x1="247.17">
   <stop id="stop13481" stop-color="#999a9e" offset="0"/>
   <stop id="stop13483" offset="1"/>
  </linearGradient>
  <linearGradient id="linearGradient3632" y2="607.83" xlink:href="#linearGradient13380" gradientUnits="userSpaceOnUse" x2="249.71" gradientTransform="translate(.10451 .018074)" y1="519.78" x1="249.71"/>
  <linearGradient id="linearGradient13380">
   <stop id="stop13382" offset="0"/>
   <stop id="stop13384" stop-color="#a0a0a0" offset="1"/>
  </linearGradient>
  <linearGradient id="linearGradient4818" y2="521.75" gradientUnits="userSpaceOnUse" x2="356.53" gradientTransform="translate(.10451 .018074)" y1="607.84" x1="251.56">
   <stop id="stop13405" stop-color="#1f1d22" offset="0"/>
   <stop id="stop13413" stop-color="#dcdcdc" offset=".089286"/>
   <stop id="stop13407" stop-color="#808080" offset="1"/>
  </linearGradient>
  <linearGradient id="linearGradient13568" x1="251.56" xlink:href="#linearGradient13380" gradientUnits="userSpaceOnUse" y1="530.61" gradientTransform="matrix(1 0 0 -1 .10451 1052.4)" x2="251.56" y2="444.52"/>
  <radialGradient id="radialGradient4820" gradientUnits="userSpaceOnUse" cy="568.05" cx="329.29" gradientTransform="matrix(-.89468 1.1555 -1.4105 -1.0921 1374.3 784.76)" r="46.94">
   <stop id="stop13489" stop-color="#eaeaeb" offset="0"/>
   <stop id="stop13491" stop-color="#4a4b4e" offset="1"/>
  </radialGradient>
  <linearGradient id="linearGradient3634" y2="568.3" xlink:href="#linearGradient13421" gradientUnits="userSpaceOnUse" x2="376.55" y1="561.76" x1="370.32"/>
  <linearGradient id="linearGradient13421">
   <stop id="stop13423" stop-color="#7f8488" offset="0"/>
   <stop id="stop13425" stop-color="#abaeb1" offset="1"/>
  </linearGradient>
 </defs>
 <metadata id="metadata5444">
  <rdf:RDF>
   <cc:Work rdf:about="">
    <dc:format>image/svg+xml</dc:format>
    <dc:type rdf:resource="http://purl.org/dc/dcmitype/StillImage"/>
    <dc:title>TTH-old_style_TV</dc:title>
    <dc:date>16/03/2016</dc:date>
    <dc:creator>
     <cc:Agent>
      <dc:title>Arno Gaboury</dc:title>
     </cc:Agent>
    </dc:creator>
    <cc:license rdf:resource="http://creativecommons.org/licenses/by-nc-sa/3.0/"/>
   </cc:Work>
   <cc:License rdf:about="http://creativecommons.org/licenses/by-nc-sa/3.0/">
    <cc:permits rdf:resource="http://creativecommons.org/ns#Reproduction"/>
    <cc:permits rdf:resource="http://creativecommons.org/ns#Distribution"/>
    <cc:requires rdf:resource="http://creativecommons.org/ns#Notice"/>
    <cc:requires rdf:resource="http://creativecommons.org/ns#Attribution"/>
    <cc:prohibits rdf:resource="http://creativecommons.org/ns#CommercialUse"/>
    <cc:permits rdf:resource="http://creativecommons.org/ns#DerivativeWorks"/>
    <cc:requires rdf:resource="http://creativecommons.org/ns#ShareAlike"/>
   </cc:License>
  </rdf:RDF>
 </metadata>
 <g id="layer1" transform="translate(-600 -316.83)">
  <g id="g5308" transform="matrix(4.05 0 0 4.05 242.02 -524.26)">
   <g id="g3443">
    <g id="g6188">
     <g id="g6596">
      <g id="layer1-3" transform="matrix(1.4335 0 0 1.4335 -266.92 -534.67)">
       <g id="g3468">
        <g id="g3470" stroke-linecap="round">
         <path id="rect13374" d="m253.65 518.34h126.2c2.9343 0 5.2966 2.3623 5.2966 5.2966v80.371c0 2.9343-2.3623 5.2966-5.2966 5.2966h-126.2c-2.9343 0-5.2966-2.3623-5.2966-5.2966v-80.371c0-2.9343 2.3623-5.2966 5.2966-5.2966z" fill="url(#linearGradient4816)" stroke="#000"/>
         <path id="rect13378" d="m253.54 520.3h126.31c1.7861 0 3.224 1.4379 3.224 3.224v80.601c0 1.7861-1.4379 3.224-3.224 3.224h-126.31c-1.7861 0-3.224-1.4379-3.224-3.224v-80.601c0-1.7861 1.4379-3.224 3.224-3.224z" fill="#999a9e" stroke="url(#linearGradient3632)"/>
         <path id="rect13390" d="m356.13 522.26h23.72c1.7861 0 3.224 1.4379 3.224 3.224v78.643c0 1.7861-1.4379 3.224-3.224 3.224h-23.835l0.11515-85.092z" fill="#1e1b22" stroke="url(#linearGradient3632)"/>
         <path id="rect13388" d="m255.39 522.27c-1.7861 0-3.2188 1.4327-3.2188 3.2188v78.625c0 1.7861 1.4326 3.25 3.2188 3.25h100.62l0.125-85.094h-100.75z" fill="url(#linearGradient4818)" stroke="url(#linearGradient13568)"/>
        </g>
        <path id="path13370" d="m304.66 527.21c11.647 0 38.024 0.92407 41.808 4.0379 3.5894 2.9541 3.7894 22.284 3.7894 34.19 0 11.675-0.0753 27.789-3.5306 31.245-3.5105 3.5105-29.547 5.7165-42.066 5.7165-11.203 0-39.893-1.1619-44.003-5.272-4.0524-4.0524-3.2058-17.995-3.2058-31.689 0-13.579-0.26087-30.167 3.4237-33.851 3.7428-3.7428 30.769-4.3766 43.785-4.3766z" fill-rule="evenodd" stroke="#000" stroke-width="1px" fill="url(#radialGradient4820)"/>
       </g>
       <g stroke-linecap="round">
        <g id="g3477" stroke="#000">
         <path id="rect13372" d="m253.65 518.34h126.2c2.9343 0 5.2966 2.3623 5.2966 5.2966v80.371c0 2.9343-2.3623 5.2966-5.2966 5.2966h-126.2c-2.9343 0-5.2966-2.3623-5.2966-5.2966v-80.371c0-2.9343 2.3623-5.2966 5.2966-5.2966z" fill="none"/>
         <path id="path13417" d="m378.02 564.96a4.4906 4.4906 0 1 1 -8.9812 0 4.4906 4.4906 0 1 1 8.9812 0z" transform="matrix(2.4823,0,0,2.4823,-557.96,-842.15)" stroke-width=".40285" fill="url(#linearGradient3634)"/>
         <path id="path13415" d="m378.02 564.96a4.4906 4.4906 0 1 1 -8.9812 0 4.4906 4.4906 0 1 1 8.9812 0z" transform="matrix(1.2999,0,0,1.2999,-116.31,-174.15)" stroke-width=".76927" fill="#1e1b22"/>
        </g>
        <path id="path13419" d="m373.21 569.44a4.4906 4.4906 0 1 1 4.2621 -2.3336" transform="matrix(1.9179,0,0,1.9179,-347.13,-523.27)" stroke="#7f7f7f" stroke-width="1.0428" fill="none"/>
        <g id="g3483" stroke="#000">
         <path id="rect13429" d="m98.459 659.45h2.9445v8.126h-2.9445z" transform="rotate(-24.823)" stroke-width=".81893" fill="#a8acab"/>
         <path id="path13433" d="m378.02 564.96a4.4906 4.4906 0 1 1 -8.9812 0 4.4906 4.4906 0 1 1 8.9812 0z" transform="matrix(2.4823,0,0,2.4823,-557.96,-867.13)" stroke-width=".40285" fill="url(#linearGradient3634)"/>
         <path id="path13435" d="m378.02 564.96a4.4906 4.4906 0 1 1 -8.9812 0 4.4906 4.4906 0 1 1 8.9812 0z" transform="matrix(1.2999,0,0,1.2999,-116.31,-199.14)" stroke-width=".76927" fill="#1e1b22"/>
         <path id="rect13437" d="m-279.97 583.56h2.9445v8.126h-2.9445z" transform="rotate(-59.958)" stroke-width=".81893" fill="#a8acab"/>
        </g>
       </g>
       <g id="g13465" transform="translate(.1045 .13323)" stroke="#7f7f7f" stroke-width="1.5" fill="none">
        <path id="path13441" d="m369.15 542.39v2.5332"/>
        <path id="path13443" d="m372.78 541.42 1.2666 2.1938"/>
        <path id="path13445" d="m375.43 538.76 2.1938 1.2666"/>
        <path id="path13447" d="m376.41 535.14h2.5332"/>
        <path id="path13449" d="m375.43 531.51 2.1938-1.2666"/>
        <path id="path13451" d="m372.78 528.85 1.2666-2.1938"/>
        <path id="path13453" d="m369.15 527.88v-2.5332"/>
        <path id="path13455" d="m365.52 528.85-1.2666-2.1938"/>
        <path id="path13457" d="m362.87 531.51-2.1938-1.2666"/>
        <path id="path13459" d="m361.9 535.14h-2.5332"/>
        <path id="path13461" d="m362.87 538.76-2.1938 1.2666"/>
        <path id="path13463" d="m365.52 541.42-1.2666 2.1938"/>
       </g>
      </g>
      <g id="flowRoot5596" transform="matrix(1.5048 0 0 1.5048 -52.379 -113.52)">
       <path id="path6229" d="m116.59 229.36-0.50637 4.2438-1.0248-3.207-1.6035-0.0241-0.1929 6.0764 2.7247 1.3142-7.2459-0.0723 2.6404-1.3021-0.16879-6.0402-1.495-0.0121-1.0971 3.2432-0.36169-4.3403 8.331 0.12056z"/>
       <path id="path6231" d="m126.24 238.39-5.0516-0.14468 1.712-0.92834v-2.2063q0-0.7475-0.38581-1.1574-0.3858-0.40991-1.1333-0.40991-0.31346 0-0.71132 0.0723-0.38581 0.0603-0.6631 0.20496-0.0362 0.68722-0.0723 1.3744-0.0241 0.67516-0.0482 1.3624l1.5312 0.91628-5.0516 0.20496 1.9411-1.073-0.31347-8.1019-2.9659-0.78366 5.2807-0.78367-0.25318 5.7871q0.30141-0.0965 0.61488-0.13262 0.31346-0.0362 0.62693-0.0362h0.0482q0.51843 0 1.1212 0.10851 0.60281 0.0965 1.1092 0.34964 0.51843 0.24112 0.856 0.67515 0.33758 0.42198 0.33758 1.073 0 0.22907-0.0482 0.56665-0.0362 0.33758-0.0965 0.69927t-0.13262 0.69927q-0.0723 0.32552-0.12057 0.54254l1.8687 1.1212z"/>
       <path id="path6233" d="m132.36 235.34q0 0.0844-0.0121 0.16879 0 0.0844 0 0.16878l-4.9069 0.0965q0.15673 0.71132 0.71132 1.0489 0.5546 0.33758 1.2539 0.33758 0.33758 0 0.68721-0.0482 0.34964-0.0482 0.68721-0.15673 0.33758-0.10851 0.63899-0.2773 0.30141-0.18084 0.54254-0.42197-0.13262 0.50637-0.44609 0.89217-0.31346 0.38581-0.74749 0.63899-0.42198 0.25318-0.92834 0.37375-0.49431 0.13262-0.98863 0.13262-0.67515 0-1.29-0.24113-0.60282-0.24113-1.061-0.6631-0.44608-0.42197-0.71133-1.0127-0.26524-0.59076-0.26524-1.29 0-0.73544 0.30141-1.3383 0.30141-0.60281 0.79572-1.0248 0.49432-0.43403 1.1454-0.6631 0.65104-0.22907 1.3624-0.22907 0.7475 0 1.3383 0.2773 0.60282 0.27729 1.0248 0.75955 0.42197 0.48225 0.63899 1.1212 0.22907 0.62693 0.22907 1.3503zm-1.8446-0.61488q-0.0241-0.32552-0.13262-0.62693-0.1085-0.30141-0.30141-0.53048-0.1929-0.22907-0.47019-0.36169-0.26524-0.14468-0.62694-0.14468-0.36169 0-0.62693 0.13262t-0.44608 0.36169q-0.18085 0.21702-0.30141 0.51843-0.10851 0.28935-0.16879 0.60282l3.0744 0.0482z"/>
       <path id="path6235" d="m145.09 228.68-0.0482 4.9311-1.4347-3.7978-3.1347 0.28935-0.0723 3.1226 1.0368-0.0723 1.2418-2.2063-0.10851 5.6424-1.2177-2.0978-0.97656-0.0723-0.0482 2.6765 2.6645 1.1333-7.1615-0.0241q0.63898-0.2773 1.278-0.56665 0.63899-0.28936 1.3021-0.54254l-0.1929-6.6913q-0.69927-0.20496-1.3865-0.45814-0.68721-0.25318-1.3865-0.49431 2.4233-0.1929 4.8226-0.39786 2.3992-0.20496 4.8226-0.37375z"/>
       <path id="path6237" d="m149.32 229.01q0 0.26524-0.10851 0.50637-0.0965 0.22907-0.2773 0.40991-0.16879 0.16879-0.40991 0.2773-0.22908 0.0965-0.49432 0.0965t-0.49431-0.0965q-0.22907-0.10851-0.40991-0.2773-0.16879-0.18084-0.2773-0.40991-0.0965-0.24113-0.0965-0.50637t0.0965-0.49431q0.10851-0.22907 0.2773-0.39786 0.18084-0.18085 0.40991-0.2773 0.22907-0.10851 0.49431-0.10851t0.49432 0.10851q0.24112 0.0965 0.40991 0.2773 0.18085 0.16879 0.2773 0.39786 0.10851 0.22907 0.10851 0.49431zm1.4106 8.548-5.4012-0.0965 2.0014-1.2418-0.16878-4.0027-2.3028-1.0851h4.4247l-0.39786 5.1722 1.8446 1.2539z"/>
       <path id="path6239" d="m159.04 236.74-5.2325 0.0362 2.2545-0.86805v-2.1702q0-0.63899-0.32552-1.0127-0.31347-0.3858-0.96451-0.3858-0.32552 0-0.69927 0.10851-0.36169 0.1085-0.54254 0.40991l-0.26524 2.3389q0.12057 0.0965 0.37375 0.24113 0.26524 0.14467 0.54254 0.28935 0.31346 0.16879 0.67515 0.34964l-4.9552 0.0241 2.0255-0.83189-0.3617-2.9056q-0.34963-0.0965-0.80777-0.21701-0.45815-0.13262-0.88012-0.26524-0.48225-0.14468-1.0007-0.30141l4.7864-0.79572-0.0603 0.73544q0.42197-0.16879 0.90423-0.33758 0.48225-0.16879 0.9404-0.16879 1.0971 0 1.7 0.59076 0.60281 0.59076 0.60281 1.7 0 0.2773-0.0362 0.62693-0.0241 0.33758-0.0723 0.68721-0.0482 0.34964-0.10851 0.69927-0.0482 0.33758-0.0964 0.62694l1.6035 0.79572z"/>
       <path id="path6241" d="m163.6 229.75-0.1085 1.1333q-0.59076-0.0482-1.1695-0.0844-0.57871-0.0482-1.1695-0.1085-0.0965 1.1454-0.20496 2.2786-0.1085 1.1333-0.21701 2.2787 0 0.0603-0.0121 0.12056-0.012 0.0603-0.012 0.12056 0 0.16879 0.0362 0.34964 0.0362 0.16879 0.12057 0.31346 0.0844 0.13262 0.21701 0.22907 0.14468 0.0844 0.34964 0.0844 0.39786 0 0.69927-0.18085 0.30141-0.1929 0.50637-0.48225 0.20495-0.28935 0.32552-0.63899 0.12056-0.36169 0.15673-0.71133 0.14468 0.56665 0.14468 1.1212 0 0.53048-0.16879 0.96451-0.16879 0.42197-0.4702 0.73544-0.30141 0.30141-0.72338 0.47019-0.42198 0.16879-0.92834 0.16879-0.53048 0-0.92835-0.18084-0.39786-0.18085-0.6631-0.49431-0.25318-0.32553-0.3858-0.75955-0.12056-0.43403-0.12056-0.92835 0-0.0965 0-0.18084 0-0.0844 0.012-0.18085 0.0965-1.1695 0.18085-2.3028 0.0965-1.1454 0.16879-2.3148-0.32552-0.0241-0.65105-0.0482-0.31346-0.0362-0.63898-0.0723l0.0482-0.95246q0.25318-0.0121 0.53048-0.0844t0.53048-0.1929q0.26524-0.12057 0.48226-0.28935 0.22907-0.16879 0.37374-0.38581 0.13262-0.21701 0.24113-0.4702 0.12057-0.25318 0.20496-0.53048 0.0965-0.27729 0.15673-0.54253 0.0603-0.2773 0.0844-0.53048l0.98862 0.0241-0.31347 3.0141 2.3269 0.24113z"/>
       <path id="path6243" d="m170.4 235.34q0 0.0844-0.0121 0.16879 0 0.0844 0 0.16878l-4.9069 0.0965q0.15673 0.71132 0.71133 1.0489 0.55459 0.33758 1.2539 0.33758 0.33758 0 0.68721-0.0482 0.34964-0.0482 0.68721-0.15673 0.33758-0.10851 0.63899-0.2773 0.30141-0.18084 0.54254-0.42197-0.13262 0.50637-0.44609 0.89217-0.31346 0.38581-0.74749 0.63899-0.42197 0.25318-0.92834 0.37375-0.49431 0.13262-0.98863 0.13262-0.67515 0-1.29-0.24113-0.60282-0.24113-1.061-0.6631-0.44608-0.42197-0.71132-1.0127-0.26524-0.59076-0.26524-1.29 0-0.73544 0.3014-1.3383 0.30141-0.60281 0.79573-1.0248 0.49431-0.43403 1.1454-0.6631 0.65105-0.22907 1.3624-0.22907 0.7475 0 1.3383 0.2773 0.60282 0.27729 1.0248 0.75955 0.42197 0.48225 0.63899 1.1212 0.22907 0.62693 0.22907 1.3503zm-1.8446-0.61488q-0.0241-0.32552-0.13262-0.62693-0.1085-0.30141-0.30141-0.53048-0.1929-0.22907-0.47019-0.36169-0.26524-0.14468-0.62694-0.14468-0.36169 0-0.62693 0.13262t-0.44608 0.36169q-0.18085 0.21702-0.30141 0.51843-0.10851 0.28935-0.16879 0.60282l3.0744 0.0482z"/>
       <path id="path6245" d="m177.69 235.08q0.012 0.7716-0.21702 1.3744-0.21701 0.60282-0.65104 1.0127-0.42198 0.40991-1.0368 0.61487-0.60282 0.21702-1.3503 0.21702-0.73543 0-1.3865-0.24113-0.63899-0.24113-1.1212-0.68721-0.4702-0.44609-0.7475-1.061-0.27729-0.61488-0.27729-1.3744 0-0.79572 0.31346-1.4468 0.31347-0.65104 0.84395-1.1092 0.53048-0.45814 1.2177-0.69927 0.69927-0.25319 1.4588-0.25319 0.40992 0 0.89218 0.13262 0.49431 0.13263 0.91628 0.38581 0.43403 0.25318 0.71133 0.62693 0.28935 0.37375 0.28935 0.86806 0 0.45814-0.2773 0.73544-0.27729 0.27729-0.73544 0.27729-0.45814 0-0.78366-0.25318-0.32552-0.26524-0.32552-0.73544 0-0.15673 0.0241-0.32552 0.0362-0.18085 0.12056-0.31347-0.20496-0.16879-0.44608-0.24112-0.24113-0.0723-0.49431-0.0723-0.45815 0-0.78367 0.22907-0.31346 0.21701-0.51842 0.55459-0.1929 0.33758-0.2773 0.75955-0.0844 0.40992-0.0844 0.78367 0 0.4702 0.14467 0.86806 0.14468 0.3858 0.42198 0.67515 0.27729 0.2773 0.6631 0.44609 0.3858 0.15673 0.88011 0.15673 0.43403 0 0.81984-0.16879 0.3858-0.16879 0.71132-0.43403 0.32552-0.27729 0.59076-0.61487 0.2773-0.33758 0.49432-0.68721z"/>
       <path id="path6247" d="m187.06 238.39-5.0516-0.14468 1.712-0.92834v-2.2063q0-0.7475-0.3858-1.1574-0.38581-0.40991-1.1333-0.40991-0.31347 0-0.71133 0.0723-0.3858 0.0603-0.6631 0.20496-0.0362 0.68722-0.0723 1.3744-0.0241 0.67516-0.0482 1.3624l1.5312 0.91628-5.0516 0.20496 1.9411-1.073-0.31346-8.1019-2.9659-0.78366 5.2807-0.78367-0.25318 5.7871q0.3014-0.0965 0.61487-0.13262 0.31347-0.0362 0.62693-0.0362h0.0482q0.51842 0 1.1212 0.10851 0.60282 0.0965 1.1092 0.34964 0.51842 0.24112 0.856 0.67515 0.33758 0.42198 0.33758 1.073 0 0.22907-0.0482 0.56665-0.0362 0.33758-0.0965 0.69927t-0.13262 0.69927q-0.0723 0.32552-0.12056 0.54254l1.8687 1.1212z"/>
       <path id="path6249" d="m119.45 247.09q0 0.49431-0.30141 0.81983-0.30141 0.31346-0.80778 0.31346-0.37374 0-0.5787-0.13262-0.20496-0.14467-0.34964-0.31346-0.13262-0.18085-0.27729-0.31347-0.13262-0.14467-0.38581-0.14467-0.44608 0-0.71132 0.28935-0.26524 0.2773-0.39786 0.6631-0.0121 0.0241-0.0241 0.22907 0 0.20496-0.0121 0.51843-0.0121 0.31346-0.0241 0.68721-0.0121 0.37375-0.0241 0.71132-0.0121 0.33758-0.0241 0.60282-0.0121 0.25319-0.0121 0.33758l2.9297 1.061-6.9686 0.71133q0.62693-0.39786 1.2539-0.78367 0.62693-0.39786 1.2539-0.78366l-0.44608-4.2077-2.6886-0.72339 4.8587-1.061-0.0241 1.1092q0.50637-0.34964 1.0368-0.59076 0.54254-0.25319 1.1936-0.25319 0.21702 0 0.44609 0.0482t0.43403 0.14467q0.20496 0.0965 0.36169 0.26524 0.15673 0.15674 0.22907 0.38581 0.0603 0.21701 0.0603 0.40992z"/>
       <path id="path6251" d="m125.56 250.77q0 0.0844-0.0121 0.16879 0 0.0844 0 0.16878l-4.907 0.0965q0.15673 0.71132 0.71133 1.0489 0.55459 0.33758 1.2539 0.33758 0.33758 0 0.68721-0.0482 0.34964-0.0482 0.68722-0.15673 0.33758-0.10851 0.63899-0.2773 0.3014-0.18084 0.54253-0.42197-0.13262 0.50637-0.44608 0.89217-0.31347 0.38581-0.7475 0.63899-0.42197 0.25318-0.92834 0.37375-0.49431 0.13262-0.98862 0.13262-0.67516 0-1.29-0.24113-0.60282-0.24113-1.061-0.6631-0.44608-0.42197-0.71132-1.0127-0.26524-0.59076-0.26524-1.29 0-0.73544 0.30141-1.3383 0.30141-0.60281 0.79572-1.0248 0.49431-0.43403 1.1454-0.6631 0.65105-0.22907 1.3624-0.22907 0.7475 0 1.3383 0.2773 0.60282 0.27729 1.0248 0.75955 0.42198 0.48225 0.63899 1.1212 0.22907 0.62693 0.22907 1.3503zm-1.8446-0.61488q-0.0241-0.32552-0.13262-0.62693-0.10851-0.30141-0.30141-0.53048t-0.4702-0.36169q-0.26524-0.14468-0.62693-0.14468t-0.62693 0.13262-0.44609 0.36169q-0.18085 0.21702-0.30141 0.51843-0.10851 0.28935-0.16879 0.60282l3.0744 0.0482z"/>
       <path id="path6253" d="m134.71 247.56-2.4716 1.0127-2.7127 5.4254-3.5687-6.2573-2.2304-0.61488 6.1126-0.96451-1.8687 1.278 1.7723 3.6169 1.3744-2.6403-2.1219-1.278 5.7147 0.42197z"/>
       <path id="path6255" d="m141.84 250.05q0 0.83189-0.42197 1.4106-0.40992 0.56665-1.061 0.92834-0.63898 0.34963-1.3985 0.51842-0.75955 0.15674-1.4468 0.15674-0.67516 0-1.4106-0.16879-0.72338-0.16879-1.3382-0.53048-0.60282-0.36169-1.0007-0.92834-0.38581-0.57871-0.38581-1.3865 0-0.88011 0.42198-1.4588 0.42197-0.5787 1.061-0.91628 0.65104-0.33758 1.4226-0.4702 0.78366-0.13262 1.507-0.13262 0.6631 0 1.3744 0.16879 0.72339 0.16879 1.3142 0.53048 0.60282 0.34963 0.97656 0.91628 0.38581 0.56665 0.38581 1.3624zm-1.9893-0.0241q0-0.43403-0.16879-0.79572-0.15674-0.36169-0.44609-0.62693-0.2773-0.26524-0.65104-0.40992-0.37375-0.14467-0.79572-0.14467-0.43403 0-0.86806 0.13262-0.43403 0.12056-0.78367 0.36169-0.34963 0.24112-0.56665 0.61487-0.21701 0.36169-0.21701 0.83189t0.14468 0.856q0.15673 0.38581 0.43403 0.6631 0.28935 0.2773 0.67515 0.43403 0.38581 0.14468 0.856 0.14468 0.50637 0 0.9404-0.10851 0.43403-0.12056 0.75955-0.37374 0.32553-0.25319 0.50637-0.63899 0.18085-0.39786 0.18085-0.9404z"/>
       <path id="path6257" d="m146.54 253.7-5.4856 0.20496 2.0616-1.3141-0.39786-9.1146-2.8332-1.0489 5.0998-0.0603-0.36169 10.164 1.917 1.1695z"/>
       <path id="path6259" d="m154.51 252.93-3.3034 0.61487 0.0362-1.0851q-0.13262 0.16879-0.33758 0.30141-0.20496 0.12056-0.44609 0.20496-0.22907 0.0723-0.47019 0.1085-0.24113 0.0362-0.45815 0.0362-1.507 0-2.1701-0.72338t-0.6631-2.1822q0-0.56665 0.012-1.1092 0.0121-0.54254 0.0241-1.0971-0.47019-0.2773-0.95245-0.54254-0.48225-0.26524-0.95245-0.54253l3.9063-0.0241q-0.0844 0.86806-0.20496 1.8326-0.1085 0.95246-0.1085 1.8085 0 0.75955 0.33758 1.1092 0.33757 0.34964 1.0971 0.34964 0.3858 0 0.7716-0.21702 0.38581-0.21701 0.61488-0.51842l0.15673-3.0864-2.1581-1.0489 4.1474-0.0362-0.81983 5.136 1.9411 0.71133z"/>
       <path id="path6261" d="m159.07 245.18-0.10851 1.1333q-0.59076-0.0482-1.1695-0.0844-0.57871-0.0482-1.1695-0.1085-0.0965 1.1454-0.20496 2.2786-0.1085 1.1333-0.21701 2.2786 0 0.0603-0.0121 0.12057-0.0121 0.0603-0.0121 0.12056 0 0.16879 0.0362 0.34964 0.0362 0.16879 0.12056 0.31346 0.0844 0.13262 0.21701 0.22907 0.14468 0.0844 0.34964 0.0844 0.39786 0 0.69927-0.18085 0.30141-0.1929 0.50637-0.48225 0.20495-0.28935 0.32552-0.63899 0.12056-0.36169 0.15673-0.71133 0.14468 0.56665 0.14468 1.1212 0 0.53048-0.16879 0.96451-0.16879 0.42197-0.4702 0.73544-0.30141 0.3014-0.72338 0.47019-0.42198 0.16879-0.92834 0.16879-0.53048 0-0.92834-0.18084-0.39786-0.18085-0.66311-0.49431-0.25318-0.32553-0.3858-0.75956-0.12056-0.43402-0.12056-0.92834 0-0.0965 0-0.18084 0-0.0844 0.012-0.18085 0.0965-1.1695 0.18085-2.3028 0.0965-1.1454 0.16879-2.3148-0.32552-0.0241-0.65105-0.0482-0.31346-0.0362-0.63898-0.0723l0.0482-0.95246q0.25319-0.012 0.53048-0.0844 0.2773-0.0723 0.53048-0.1929 0.26524-0.12057 0.48226-0.28936 0.22907-0.16878 0.37375-0.3858 0.13262-0.21701 0.24112-0.4702 0.12057-0.25318 0.20496-0.53048 0.0965-0.27729 0.15673-0.54254 0.0603-0.27729 0.0844-0.53048l0.98862 0.0241-0.31346 3.0141 2.3269 0.24113z"/>
       <path id="path6263" d="m162.61 244.45q0 0.26524-0.10851 0.50637-0.0965 0.22907-0.27729 0.40991-0.16879 0.16879-0.40992 0.2773-0.22907 0.0965-0.49431 0.0965t-0.49431-0.0965q-0.22907-0.10851-0.40992-0.2773-0.16879-0.18084-0.2773-0.40991-0.0965-0.24113-0.0965-0.50637t0.0965-0.49431q0.10851-0.22907 0.2773-0.39786 0.18085-0.18085 0.40992-0.2773 0.22907-0.10851 0.49431-0.10851t0.49431 0.10851q0.24113 0.0965 0.40992 0.2773 0.18084 0.16879 0.27729 0.39786 0.10851 0.22907 0.10851 0.49431zm1.4106 8.548-5.4013-0.0965 2.0014-1.2418-0.16879-4.0027-2.3028-1.0851h4.4247l-0.39786 5.1722 1.8446 1.2539z"/>
       <path id="path6265" d="m171.98 250.05q0 0.83189-0.42197 1.4106-0.40992 0.56665-1.061 0.92834-0.63899 0.34963-1.3985 0.51842-0.75955 0.15674-1.4468 0.15674-0.67515 0-1.4106-0.16879-0.72338-0.16879-1.3383-0.53048-0.60282-0.36169-1.0007-0.92834-0.3858-0.57871-0.3858-1.3865 0-0.88011 0.42197-1.4588 0.42197-0.5787 1.061-0.91628 0.65105-0.33758 1.4226-0.4702 0.78367-0.13262 1.507-0.13262 0.6631 0 1.3744 0.16879 0.72338 0.16879 1.3141 0.53048 0.60282 0.34963 0.97657 0.91628 0.3858 0.56665 0.3858 1.3624zm-1.9893-0.0241q0-0.43403-0.16879-0.79572-0.15673-0.36169-0.44608-0.62693-0.2773-0.26524-0.65105-0.40992-0.37375-0.14467-0.79572-0.14467-0.43403 0-0.86806 0.13262-0.43403 0.12056-0.78366 0.36169-0.34964 0.24112-0.56665 0.61487-0.21702 0.36169-0.21702 0.83189t0.14468 0.856q0.15673 0.38581 0.43403 0.6631 0.28935 0.2773 0.67516 0.43403 0.3858 0.14468 0.856 0.14468 0.50637 0 0.9404-0.10851 0.43403-0.12056 0.75955-0.37374 0.32552-0.25319 0.50636-0.63899 0.18085-0.39786 0.18085-0.9404z"/>
       <path id="path6267" d="m180.55 252.17-5.2325 0.0362 2.2545-0.86805v-2.1702q0-0.63899-0.32552-1.0127-0.31347-0.3858-0.96451-0.3858-0.32552 0-0.69927 0.10851-0.36169 0.1085-0.54254 0.40991l-0.26524 2.3389q0.12056 0.0965 0.37375 0.24113 0.26524 0.14467 0.54253 0.28935 0.31347 0.16879 0.67516 0.34963l-4.9552 0.0241 2.0255-0.83189-0.36169-2.9056q-0.34963-0.0965-0.80778-0.21701-0.45814-0.13262-0.88011-0.26524-0.48226-0.14468-1.0007-0.30141l4.7864-0.79572-0.0603 0.73544q0.42197-0.16879 0.90423-0.33758 0.48225-0.16879 0.94039-0.16879 1.0971 0 1.7 0.59076 0.60282 0.59076 0.60282 1.7 0 0.2773-0.0362 0.62693-0.0241 0.33758-0.0723 0.68721-0.0482 0.34964-0.1085 0.69927-0.0482 0.33758-0.0965 0.62693l1.6035 0.79573z"/>
       <path id="path6269" d="m123.52 261.91-2.351 0.83189-2.7006 5.8956-1.712-3.4722-1.5553 3.4361-2.8212-5.8353-2.2666-0.9404 6.3296-0.28935-2.0375 0.856 1.2539 2.8091 1.495-3.4602 1.5914 3.5446 1.2298-2.6645-1.7482-0.9404 5.2928 0.22908z"/>
       <path id="path6271" d="m125.77 259.88q0 0.26524-0.10851 0.50637-0.0965 0.22907-0.27729 0.40991-0.16879 0.16879-0.40992 0.2773-0.22907 0.0965-0.49431 0.0965t-0.49431-0.0965q-0.22907-0.10851-0.40992-0.2773-0.16879-0.18084-0.2773-0.40991-0.0965-0.24113-0.0965-0.50637t0.0965-0.49431q0.10851-0.22907 0.2773-0.39786 0.18085-0.18085 0.40992-0.2773 0.22907-0.10851 0.49431-0.10851t0.49431 0.10851q0.24113 0.0965 0.40992 0.2773 0.18084 0.16879 0.27729 0.39786 0.10851 0.22907 0.10851 0.49431zm1.4106 8.548-5.4013-0.0964 2.0014-1.2418-0.16879-4.0027-2.3028-1.0851h4.4247l-0.39786 5.1722 1.8446 1.2539z"/>
       <path id="path6273" d="m131.72 269.14-5.4856 0.20496 2.0616-1.3141-0.39786-9.1146-2.8332-1.0489 5.0998-0.0603-0.36169 10.164 1.917 1.1695z"/>
       <path id="path6275" d="m136.28 269.14-5.4856 0.20496 2.0616-1.3141-0.39786-9.1146-2.8332-1.0489 5.0998-0.0603-0.36169 10.164 1.917 1.1695z"/>
       <path id="path6277" d="m148.55 267.61-5.2325 0.0362 2.2545-0.86806v-2.1701q0-0.63899-0.32552-1.0127-0.31346-0.3858-0.96451-0.3858-0.32552 0-0.69927 0.10851-0.36169 0.1085-0.54254 0.40991l-0.26524 2.3389q0.12057 0.0965 0.37375 0.24113 0.26524 0.14467 0.54254 0.28935 0.31346 0.16879 0.67516 0.34963l-4.9552 0.0241 2.0255-0.83189-0.36169-2.9056q-0.34964-0.0965-0.80778-0.21701-0.45814-0.13262-0.88012-0.26524-0.48225-0.14468-1.0007-0.30141l4.7864-0.79572-0.0603 0.73543q0.42198-0.16878 0.90423-0.33757 0.48226-0.16879 0.9404-0.16879 1.0971 0 1.7 0.59076 0.60282 0.59076 0.60282 1.7 0 0.27729-0.0362 0.62693-0.0241 0.33758-0.0723 0.68721-0.0482 0.34964-0.10851 0.69927-0.0482 0.33758-0.0965 0.62693l1.6035 0.79572z"/>
       <path id="path6279" d="m156.4 265.48q0 0.83189-0.42198 1.4106-0.40991 0.56665-1.061 0.92834-0.63899 0.34963-1.3985 0.51842-0.75955 0.15674-1.4468 0.15674-0.67516 0-1.4106-0.16879-0.72338-0.16879-1.3382-0.53048-0.60282-0.36169-1.0007-0.92834-0.38581-0.57871-0.38581-1.3865 0-0.88011 0.42198-1.4588 0.42197-0.5787 1.061-0.91628 0.65104-0.33758 1.4226-0.4702 0.78366-0.13262 1.507-0.13262 0.66311 0 1.3744 0.16879 0.72338 0.16879 1.3142 0.53048 0.60282 0.34963 0.97656 0.91628 0.38581 0.56665 0.38581 1.3624zm-1.9893-0.0241q0-0.43403-0.16878-0.79572-0.15674-0.36169-0.44609-0.62693-0.2773-0.26524-0.65104-0.40992-0.37375-0.14468-0.79573-0.14468-0.43402 0-0.86805 0.13262-0.43403 0.12057-0.78367 0.3617-0.34963 0.24112-0.56665 0.61487-0.21701 0.36169-0.21701 0.83189t0.14467 0.856q0.15674 0.38581 0.43403 0.6631 0.28936 0.2773 0.67516 0.43403 0.3858 0.14468 0.856 0.14468 0.50637 0 0.9404-0.10851 0.43403-0.12056 0.75955-0.37374 0.32552-0.25319 0.50637-0.63899 0.18084-0.39786 0.18084-0.9404z"/>
       <path id="path6281" d="m161.95 260.61-0.10851 1.1333q-0.59076-0.0482-1.1695-0.0844-0.5787-0.0482-1.1695-0.10851-0.0965 1.1454-0.20496 2.2787-0.10851 1.1333-0.21702 2.2786 0 0.0603-0.0121 0.12057-0.0121 0.0603-0.0121 0.12056 0 0.16879 0.0362 0.34964 0.0362 0.16879 0.12056 0.31346 0.0844 0.13262 0.21702 0.22907 0.14467 0.0844 0.34963 0.0844 0.39786 0 0.69927-0.18085 0.30141-0.1929 0.50637-0.48225 0.20496-0.28936 0.32552-0.63899 0.12057-0.36169 0.15673-0.71133 0.14468 0.56665 0.14468 1.1212 0 0.53048-0.16879 0.96451-0.16879 0.42197-0.4702 0.73544-0.30141 0.3014-0.72338 0.47019t-0.92834 0.16879q-0.53048 0-0.92834-0.18084-0.39786-0.18085-0.6631-0.49431-0.25319-0.32553-0.38581-0.75956-0.12056-0.43403-0.12056-0.92834 0-0.0965 0-0.18084 0-0.0844 0.0121-0.18085 0.0964-1.1695 0.18084-2.3028 0.0965-1.1454 0.16879-2.3148-0.32552-0.0241-0.65104-0.0482-0.31347-0.0362-0.63899-0.0723l0.0482-0.95246q0.25318-0.012 0.53048-0.0844 0.27729-0.0723 0.53048-0.1929 0.26524-0.12057 0.48225-0.28936 0.22907-0.16878 0.37375-0.3858 0.13262-0.21701 0.24113-0.4702 0.12056-0.25318 0.20495-0.53048 0.0965-0.2773 0.15674-0.54254 0.0603-0.27729 0.0844-0.53048l0.98862 0.0241-0.31346 3.0141 2.3269 0.24113z"/>
       <path id="path6283" d="m174.43 266.95q0 0.67516-0.37375 1.1936-0.37375 0.51843-0.9404 0.88012-0.55459 0.37374-1.2177 0.5787-0.6631 0.21702-1.2298 0.26524l-5.4013 0.45815 1.9893-1.6035-0.32552-7.8969-3.0382-0.98862 5.3289-0.69927-0.22907 5.7871q0.53048-0.15673 1.0851-0.21702 0.56665-0.0603 1.1212-0.0603 0.55459 0 1.1212 0.12057 0.57871 0.1085 1.0489 0.37374 0.4702 0.26524 0.75956 0.71133 0.30141 0.43403 0.30141 1.0971zm-2.134 0.33758q0-0.39786-0.14468-0.68721-0.14468-0.30141-0.39786-0.49432-0.24113-0.20495-0.57871-0.30141-0.32552-0.1085-0.69926-0.1085-0.33758 0-0.78367 0.0965-0.44609 0.0844-0.75955 0.24113l-0.12056 2.8694q0.15673 0.0241 0.3014 0.0241 0.15674 0 0.30141 0 0.42198 0 0.91629-0.0603 0.50637-0.0482 0.9404-0.21701 0.43403-0.16879 0.72338-0.49431 0.30141-0.32552 0.30141-0.86806z"/>
       <path id="path6285" d="m181.66 266.21q0 0.0844-0.0121 0.16878 0 0.0844 0 0.16879l-4.907 0.0965q0.15674 0.71133 0.71133 1.0489 0.55459 0.33758 1.2539 0.33758 0.33758 0 0.68722-0.0482 0.34963-0.0482 0.68721-0.15673 0.33758-0.10851 0.63899-0.2773 0.30141-0.18084 0.54253-0.42197-0.13262 0.50637-0.44608 0.89217-0.31347 0.38581-0.7475 0.63899-0.42197 0.25318-0.92834 0.37375-0.49431 0.13262-0.98862 0.13262-0.67516 0-1.29-0.24113-0.60282-0.24113-1.061-0.6631-0.44609-0.42197-0.71133-1.0127-0.26524-0.59076-0.26524-1.29 0-0.73544 0.30141-1.3383 0.30141-0.60281 0.79572-1.0248 0.49431-0.43403 1.1454-0.6631 0.65104-0.22907 1.3624-0.22907 0.74749 0 1.3382 0.2773 0.60282 0.27729 1.0248 0.75955 0.42197 0.48225 0.63898 1.1212 0.22907 0.62693 0.22907 1.3503zm-1.8446-0.61488q-0.0241-0.32552-0.13262-0.62693-0.10851-0.30141-0.30141-0.53048t-0.4702-0.36169q-0.26524-0.14468-0.62693-0.14468t-0.62693 0.13262-0.44609 0.36169q-0.18084 0.21702-0.30141 0.51843-0.1085 0.28935-0.16879 0.60281l3.0744 0.0482z"/>
       <path id="path6287" d="m121.21 276.04-0.10851 1.1333q-0.59076-0.0482-1.1695-0.0844-0.57871-0.0482-1.1695-0.10851-0.0964 1.1454-0.20496 2.2787-0.10851 1.1333-0.21702 2.2786 0 0.0603-0.0121 0.12057-0.0121 0.0603-0.0121 0.12056 0 0.16879 0.0362 0.34964 0.0362 0.16879 0.12057 0.31346 0.0844 0.13262 0.21701 0.22907 0.14468 0.0844 0.34963 0.0844 0.39787 0 0.69927-0.18085 0.30141-0.1929 0.50637-0.48225 0.20496-0.28936 0.32552-0.63899 0.12057-0.36169 0.15674-0.71133 0.14467 0.56665 0.14467 1.1212 0 0.53048-0.16879 0.96451-0.16878 0.42197-0.47019 0.73543-0.30141 0.30141-0.72339 0.4702-0.42197 0.16879-0.92834 0.16879-0.53048 0-0.92834-0.18084-0.39786-0.18085-0.6631-0.49431-0.25318-0.32553-0.3858-0.75956-0.12057-0.43403-0.12057-0.92834 0-0.0965 0-0.18084 0-0.0844 0.0121-0.18085 0.0965-1.1695 0.18085-2.3028 0.0964-1.1454 0.16878-2.3148-0.32552-0.0241-0.65104-0.0482-0.31347-0.0362-0.63899-0.0723l0.0482-0.95246q0.25318-0.012 0.53048-0.0844 0.2773-0.0723 0.53048-0.1929 0.26524-0.12057 0.48225-0.28936 0.22908-0.16879 0.37375-0.3858 0.13262-0.21702 0.24113-0.4702 0.12056-0.25318 0.20496-0.53048 0.0964-0.2773 0.15673-0.54254 0.0603-0.27729 0.0844-0.53048l0.98863 0.0241-0.31347 3.0141 2.3269 0.24113z"/>
       <path id="path6289" d="m128.01 281.64q0 0.0844-0.0121 0.16879 0 0.0844 0 0.16879l-4.9069 0.0965q0.15673 0.71133 0.71132 1.0489 0.5546 0.33758 1.2539 0.33758 0.33758 0 0.68722-0.0482 0.34963-0.0482 0.68721-0.15673 0.33758-0.10851 0.63899-0.2773 0.30141-0.18084 0.54254-0.42197-0.13262 0.50637-0.44609 0.89217t-0.74749 0.63899q-0.42198 0.25318-0.92835 0.37375-0.49431 0.13262-0.98862 0.13262-0.67516 0-1.29-0.24113-0.60282-0.24113-1.061-0.6631-0.44609-0.42197-0.71133-1.0127-0.26524-0.59076-0.26524-1.29 0-0.73544 0.30141-1.3383 0.30141-0.60282 0.79572-1.0248 0.49431-0.43403 1.1454-0.6631 0.65104-0.22907 1.3624-0.22907 0.74749 0 1.3383 0.2773 0.60281 0.27729 1.0248 0.75955 0.42197 0.48225 0.63899 1.1212 0.22907 0.62693 0.22907 1.3503zm-1.8446-0.61487q-0.0241-0.32552-0.13262-0.62693-0.10851-0.30141-0.30141-0.53048t-0.4702-0.36169q-0.26524-0.14468-0.62693-0.14468t-0.62693 0.13262-0.44609 0.36169q-0.18084 0.21702-0.3014 0.51843-0.10851 0.28935-0.16879 0.60281l3.0744 0.0482z"/>
       <path id="path6291" d="m132.7 284.57-5.4856 0.20496 2.0616-1.3141-0.39786-9.1146-2.8332-1.0489 5.0998-0.0603-0.36169 10.164 1.917 1.1695z"/>
       <path id="path6293" d="m138.82 281.64q0 0.0844-0.0121 0.16879 0 0.0844 0 0.16879l-4.907 0.0965q0.15674 0.71133 0.71133 1.0489 0.55459 0.33758 1.2539 0.33758 0.33758 0 0.68722-0.0482 0.34963-0.0482 0.68721-0.15673 0.33758-0.10851 0.63899-0.2773 0.30141-0.18084 0.54253-0.42197-0.13262 0.50637-0.44608 0.89217-0.31347 0.3858-0.7475 0.63899-0.42197 0.25318-0.92834 0.37375-0.49431 0.13262-0.98862 0.13262-0.67516 0-1.29-0.24113-0.60282-0.24113-1.061-0.6631-0.44609-0.42197-0.71133-1.0127-0.26524-0.59076-0.26524-1.29 0-0.73544 0.30141-1.3383 0.30141-0.60282 0.79572-1.0248 0.49431-0.43403 1.1454-0.6631 0.65104-0.22907 1.3624-0.22907 0.74749 0 1.3382 0.2773 0.60282 0.27729 1.0248 0.75955 0.42197 0.48225 0.63898 1.1212 0.22907 0.62693 0.22907 1.3503zm-1.8446-0.61487q-0.0241-0.32552-0.13262-0.62693-0.10851-0.30141-0.30141-0.53048t-0.4702-0.36169q-0.26524-0.14468-0.62693-0.14468t-0.62693 0.13262-0.44609 0.36169q-0.18084 0.21702-0.30141 0.51843-0.1085 0.28935-0.16879 0.60281l3.0744 0.0482z"/>
       <path id="path6295" d="m147.97 278.42-2.4716 1.0127-2.7127 5.4254-3.5687-6.2573-2.2304-0.61488 6.1126-0.96451-1.8687 1.278 1.7723 3.6169 1.3744-2.6403-2.1219-1.278 5.7147 0.42197z"/>
       <path id="path6297" d="m150.6 275.31q0 0.26524-0.10851 0.50637-0.0965 0.22907-0.27729 0.40991-0.16879 0.16879-0.40992 0.2773-0.22907 0.0965-0.49431 0.0965t-0.49431-0.0965q-0.22908-0.10851-0.40992-0.2773-0.16879-0.18084-0.2773-0.40991-0.0965-0.24113-0.0965-0.50637t0.0965-0.49431q0.10851-0.22907 0.2773-0.39786 0.18084-0.18085 0.40992-0.2773 0.22907-0.10851 0.49431-0.10851t0.49431 0.10851q0.24113 0.0965 0.40992 0.2773 0.18084 0.16879 0.27729 0.39786 0.10851 0.22907 0.10851 0.49431zm1.4106 8.548-5.4013-0.0965 2.0014-1.2418-0.16879-4.0027-2.3028-1.0851h4.4247l-0.39786 5.1722 1.8446 1.2539z"/>
       <path id="path6299" d="m157.97 281.8q0 0.60282-0.2773 0.98862t-0.69927 0.61488q-0.42197 0.21701-0.9404 0.31346-0.51842 0.0844-1.0007 0.0844-0.27729 0-0.61487-0.0362-0.32552-0.0482-0.65105-0.13262-0.32552-0.0844-0.63898-0.20496-0.30141-0.12057-0.54254-0.28935l-0.97657 1.1454 0.37375-3.6892q0.20496 0.44609 0.51842 0.84395 0.32553 0.39786 0.73544 0.69927 0.40992 0.30141 0.88012 0.48225 0.4702 0.16879 0.97657 0.16879 0.13262 0 0.3014-0.0121 0.18085-0.0241 0.33758-0.0844 0.16879-0.0603 0.2773-0.16879 0.10851-0.10851 0.10851-0.28935 0-0.20496-0.21702-0.37375-0.21701-0.18085-0.50637-0.30141-0.28935-0.13262-0.5787-0.21701-0.28935-0.0965-0.43403-0.14468-0.40992-0.12056-0.90423-0.32552-0.48225-0.21702-0.90423-0.50637-0.40991-0.30141-0.68721-0.69927-0.2773-0.40992-0.2773-0.9404 0-0.50637 0.24113-0.90423 0.25318-0.39786 0.63899-0.6631 0.3858-0.27729 0.856-0.40991 0.48226-0.14468 0.9404-0.14468 0.72338 0 1.3624 0.26524 0.65104 0.25318 1.1815 0.73544l0.7475-1.4468-0.15673 3.8098q-0.21702-0.40992-0.54254-0.81983-0.32552-0.42198-0.72338-0.75956-0.39786-0.33757-0.85601-0.54253-0.45814-0.20496-0.95245-0.20496-0.14468 0-0.33758 0.0362-0.18084 0.0241-0.34963 0.0965-0.15674 0.0723-0.2773 0.20496-0.10851 0.12056-0.10851 0.31346 0 0.22907 0.16879 0.39786 0.18085 0.16879 0.42198 0.30141 0.25318 0.12057 0.50636 0.21702 0.26524 0.0844 0.43403 0.13262 0.43403 0.14467 0.97657 0.33758 0.54254 0.1929 1.0248 0.47019 0.48226 0.2773 0.80778 0.68722 0.33758 0.39786 0.33758 0.96451z"/>
       <path id="path6301" d="m165.18 281.64q0 0.0844-0.0121 0.16879 0 0.0844 0 0.16879l-4.9069 0.0965q0.15673 0.71133 0.71132 1.0489 0.5546 0.33758 1.2539 0.33758 0.33758 0 0.68722-0.0482 0.34963-0.0482 0.68721-0.15673 0.33758-0.10851 0.63899-0.2773 0.30141-0.18084 0.54254-0.42197-0.13262 0.50637-0.44609 0.89217t-0.7475 0.63899q-0.42197 0.25318-0.92834 0.37375-0.49431 0.13262-0.98862 0.13262-0.67516 0-1.29-0.24113-0.60282-0.24113-1.061-0.6631-0.44609-0.42197-0.71133-1.0127-0.26524-0.59076-0.26524-1.29 0-0.73544 0.30141-1.3383 0.30141-0.60282 0.79572-1.0248 0.49431-0.43403 1.1454-0.6631 0.65104-0.22907 1.3624-0.22907 0.74749 0 1.3383 0.2773 0.60281 0.27729 1.0248 0.75955 0.42197 0.48225 0.63899 1.1212 0.22907 0.62693 0.22907 1.3503zm-1.8446-0.61487q-0.0241-0.32552-0.13262-0.62693-0.10851-0.30141-0.30141-0.53048t-0.4702-0.36169q-0.26524-0.14468-0.62693-0.14468t-0.62693 0.13262-0.44609 0.36169q-0.18084 0.21702-0.3014 0.51843-0.10851 0.28935-0.16879 0.60281l3.0744 0.0482z"/>
       <path id="path6303" d="m175.11 285.29-4.1715 0.5787 0.0603-1.0489q-0.34964 0.0844-0.71133 0.12056-0.36169 0.0362-0.72338 0.0362-0.71133 0-1.4347-0.16879-0.71133-0.15673-1.29-0.51842-0.56665-0.36169-0.92834-0.9404t-0.36169-1.4106q0-0.67515 0.28935-1.2056 0.28935-0.54254 0.75955-0.91629 0.4702-0.3858 1.061-0.59076 0.60282-0.20496 1.2298-0.20496 0.61488 0 1.2298 0.13262 0.62693 0.12057 1.1695 0.37375l0.21701-4.1594-2.6644-1.2659 4.9672 0.34964-1.3021 10.224 2.6042 0.61488zm-3.8942-4.6417q-0.34963-0.24113-0.86806-0.34963-0.51842-0.10851-0.94039-0.10851-0.43403 0-0.80778 0.14468-0.36169 0.14467-0.62693 0.40991-0.25319 0.26524-0.39786 0.63899-0.14468 0.36169-0.14468 0.79572 0 0.4702 0.22907 0.81983 0.22907 0.33758 0.59076 0.56665 0.36169 0.21702 0.79572 0.31347 0.43403 0.10851 0.83189 0.10851 0.60282 0 1.1936-0.24113l0.14468-3.0985z"/>
      </g>
     </g>
    </g>
   </g>
  </g>
 </g>
</svg>
