<?xml version="1.0" encoding="UTF-8" standalone="no"?>
<svg
   xmlns:dc="http://purl.org/dc/elements/1.1/"
   xmlns:cc="http://creativecommons.org/ns#"
   xmlns:rdf="http://www.w3.org/1999/02/22-rdf-syntax-ns#"
   xmlns:svg="http://www.w3.org/2000/svg"
   xmlns="http://www.w3.org/2000/svg"
   xmlns:xlink="http://www.w3.org/1999/xlink"
   xmlns:sodipodi="http://sodipodi.sourceforge.net/DTD/sodipodi-0.dtd"
   xmlns:inkscape="http://www.inkscape.org/namespaces/inkscape"
   version="1.1"
   id="svg4308"
   viewBox="0 0 97.999998 97.999982"
   height="97.999985"
   width="98"
   inkscape:version="0.91 r13725"
   sodipodi:docname="TTH-logo-5-98x98.svg">
  <sodipodi:namedview
     pagecolor="#ffffff"
     bordercolor="#666666"
     borderopacity="1"
     objecttolerance="10"
     gridtolerance="10"
     guidetolerance="10"
     inkscape:pageopacity="0"
     inkscape:pageshadow="2"
     inkscape:window-width="1408"
     inkscape:window-height="784"
     id="namedview8982"
     showgrid="false"
     inkscape:zoom="0.82248743"
     inkscape:cx="377.95725"
     inkscape:cy="84.20576"
     inkscape:window-x="111"
     inkscape:window-y="24"
     inkscape:window-maximized="0"
     inkscape:current-layer="g4268"
     showborder="false"
     fit-margin-top="0"
     fit-margin-left="0"
     fit-margin-right="0"
     fit-margin-bottom="0"
     showguides="false" />
  <title
     id="title4446">TTH_logo</title>
  <defs
     id="defs4310">
    <linearGradient
       id="linearGradient5287">
      <stop
         id="stop5289"
         offset="0"
         style="stop-color:#6996db;stop-opacity:1;" />
    </linearGradient>
    <linearGradient
       id="linearGradient5237">
      <stop
         id="stop5239"
         offset="0"
         style="stop-color:#4d4d4d;stop-opacity:1;" />
    </linearGradient>
    <linearGradient
       id="linearGradient5223">
      <stop
         id="stop5225"
         offset="0"
         style="stop-color:#000000;stop-opacity:1;" />
    </linearGradient>
    <linearGradient
       id="linearGradient5210">
      <stop
         id="stop5212"
         offset="0"
         style="stop-color:#80112d;stop-opacity:1;" />
    </linearGradient>
    <linearGradient
       y2="-725.47064"
       x2="1036.8597"
       y1="-725.47064"
       x1="959.82001"
       gradientTransform="matrix(-2.2521278,-0.00838054,-7.5233412e-4,-2.2931983,931.57123,-1251.7099)"
       gradientUnits="userSpaceOnUse"
       id="linearGradient5183"
       xlink:href="#linearGradient5210" />
    <linearGradient
       y2="947.90405"
       x2="-281.26599"
       y1="947.90405"
       x1="-341.26599"
       gradientTransform="matrix(0,0.49090237,-0.65395196,0,-718.23737,377.36055)"
       gradientUnits="userSpaceOnUse"
       id="linearGradient3544"
       xlink:href="#linearGradient5210" />
    <linearGradient
       id="linearGradient10905">
      <stop
         id="stop10907"
         offset="0"
         style="stop-color:#6996db;stop-opacity:1;" />
    </linearGradient>
    <linearGradient
       y2="657.90405"
       x2="1113.734"
       y1="657.90405"
       x1="893.73401"
       gradientTransform="matrix(9.324151,0,0,9.3420579,-13394.653,-5396.4113)"
       gradientUnits="userSpaceOnUse"
       id="linearGradient5493"
       xlink:href="#linearGradient5210" />
    <linearGradient
       y2="-725.47064"
       x2="1036.8597"
       y1="-725.47064"
       x1="959.82001"
       gradientTransform="matrix(-0.36014664,5.8645558e-4,-5.3601012e-5,-0.19967342,1447.0503,-834.17748)"
       gradientUnits="userSpaceOnUse"
       id="linearGradient5172"
       xlink:href="#TTH-rouge-7" />
    <linearGradient
       y2="-725.47064"
       x2="1036.8597"
       y1="-725.47064"
       x1="959.82001"
       gradientUnits="userSpaceOnUse"
       id="linearGradient5174"
       xlink:href="#TTH-rouge-7" />
    <linearGradient
       y2="947.90405"
       x2="-281.26599"
       y1="947.90405"
       x1="-341.26599"
       gradientTransform="matrix(0,1.3650682,-1.8184655,0,380.64802,512.90559)"
       gradientUnits="userSpaceOnUse"
       id="linearGradient5176"
       xlink:href="#TTH-rouge-7" />
    <linearGradient
       gradientUnits="userSpaceOnUse"
       y2="-688.24725"
       x2="1103.326"
       y1="-688.24725"
       x1="1072.2285"
       id="linearGradient5214"
       xlink:href="#linearGradient5210" />
    <linearGradient
       gradientUnits="userSpaceOnUse"
       y2="545.86951"
       x2="853.66412"
       y1="545.86951"
       x1="517.7843"
       id="linearGradient5227"
       xlink:href="#linearGradient5210" />
    <linearGradient
       gradientUnits="userSpaceOnUse"
       y2="330.99854"
       x2="-1006.4088"
       y1="330.99854"
       x1="-1672.8632"
       id="linearGradient5241"
       xlink:href="#linearGradient5223"
       gradientTransform="matrix(0.36044719,0,0,0.36044719,-854.0171,192.6608)" />
    <linearGradient
       gradientUnits="userSpaceOnUse"
       y2="-688.24725"
       x2="1103.326"
       y1="-688.24725"
       x1="1072.2285"
       id="linearGradient5247"
       xlink:href="#linearGradient5223" />
    <linearGradient
       gradientUnits="userSpaceOnUse"
       y2="609.51849"
       x2="-719.21881"
       y1="609.51849"
       x1="-1951.5059"
       id="linearGradient5255"
       xlink:href="#linearGradient5223"
       gradientTransform="matrix(0.36044719,0,0,0.36044719,-854.0171,192.6608)" />
    <linearGradient
       y2="-688.24725"
       x2="1103.326"
       y1="-688.24725"
       x1="1072.2285"
       gradientUnits="userSpaceOnUse"
       id="linearGradient5270"
       xlink:href="#linearGradient5210" />
    <linearGradient
       y2="-688.24725"
       x2="1103.326"
       y1="-688.24725"
       x1="1072.2285"
       gradientUnits="userSpaceOnUse"
       id="linearGradient5272"
       xlink:href="#linearGradient5223" />
    <linearGradient
       y2="545.86951"
       x2="853.66412"
       y1="545.86951"
       x1="517.7843"
       gradientUnits="userSpaceOnUse"
       id="linearGradient5274"
       xlink:href="#linearGradient5210" />
  </defs>
  <metadata
     id="metadata4313">
    <rdf:RDF>
      <cc:Work
         rdf:about="">
        <dc:format>image/svg+xml</dc:format>
        <dc:type
           rdf:resource="http://purl.org/dc/dcmitype/StillImage" />
        <dc:title>TTH_logo</dc:title>
        <cc:license
           rdf:resource="http://creativecommons.org/licenses/by-nc-sa/3.0/" />
        <dc:date>2016_02_20</dc:date>
        <dc:creator>
          <cc:Agent>
            <dc:title>Arno_Gaboury</dc:title>
          </cc:Agent>
        </dc:creator>
      </cc:Work>
      <cc:License
         rdf:about="http://creativecommons.org/licenses/by-nc-sa/3.0/">
        <cc:permits
           rdf:resource="http://creativecommons.org/ns#Reproduction" />
        <cc:permits
           rdf:resource="http://creativecommons.org/ns#Distribution" />
        <cc:requires
           rdf:resource="http://creativecommons.org/ns#Notice" />
        <cc:requires
           rdf:resource="http://creativecommons.org/ns#Attribution" />
        <cc:prohibits
           rdf:resource="http://creativecommons.org/ns#CommercialUse" />
        <cc:permits
           rdf:resource="http://creativecommons.org/ns#DerivativeWorks" />
        <cc:requires
           rdf:resource="http://creativecommons.org/ns#ShareAlike" />
      </cc:License>
    </rdf:RDF>
  </metadata>
  <g
     transform="translate(2896.2453,-816.69695)"
     id="layer1">
    <g
       id="g5828"
       transform="matrix(2.8007554,0,0,2.8007554,2404.6112,-542.46492)">
      <path
         style="fill:none;fill-opacity:1;stroke:#ffffff;stroke-width:28.56372261;stroke-miterlimit:4;stroke-dasharray:none;stroke-opacity:1"
         id="path9524"
         sodipodi:type="arc"
         sodipodi:cx="-2169.009"
         sodipodi:cy="-146.91734"
         sodipodi:rx="165.75792"
         sodipodi:ry="117.87231"
         sodipodi:start="0"
         sodipodi:end="0.76931429"
         d="m -2003.2511,-146.91734 a 165.75792,117.87231 0 0 1 -46.6795,81.997018 l -119.0784,-81.997018 z" />
      <g
         transform="matrix(0.24144701,0,0,0.24144701,-1299.6553,59.996359)"
         id="g9421">
        <g
           id="g9453"
           transform="matrix(1.5626569,0,0,1.5626569,969.79095,49.369696)">
          <g
             id="g9449" />
          <g
             id="g4259"
             transform="matrix(0.65018832,0,0,0.64977885,-1080.3368,593.94408)">
            <g
               id="g4268"
               transform="matrix(0.50542124,0,0,0.50542124,-845.83293,572.34453)">
              <g
                 id="g4277"
                 transform="matrix(0.37559286,0,0,0.37559286,-1067.8669,423.02845)">
                <path
                   sodipodi:nodetypes="ccccccccc"
                   id="path9423"
                   style="font-style:normal;font-variant:normal;font-weight:normal;font-stretch:normal;font-size:179.99946594px;line-height:125%;font-family:Arya;-inkscape-font-specification:'Arya, Normal';text-align:start;letter-spacing:0px;word-spacing:0px;writing-mode:lr-tb;text-anchor:start;fill:#1a237e;fill-opacity:1;stroke:none;stroke-width:3.59617472;stroke-linecap:butt;stroke-linejoin:miter;stroke-miterlimit:4;stroke-dasharray:none;stroke-opacity:1"
                   d="m -1456.7158,546.46381 0,-36.80106 98.5003,-3.3e-4 0,-203.46436 42.1965,0 0,203.46248 98.5169,-2e-5 -3e-4,36.80329 z"
                   inkscape:connector-curvature="0" />
                <g
                   transform="matrix(-6.2719933,-0.01815274,-0.0020952,-4.967194,5484.0757,-3280.2942)"
                   style="font-style:normal;font-weight:normal;font-size:40px;line-height:125%;font-family:sans-serif;letter-spacing:0px;word-spacing:0px;fill:#1a237e;fill-opacity:1;stroke:none;stroke-width:0.64429194;stroke-linecap:butt;stroke-linejoin:miter;stroke-miterlimit:4;stroke-dasharray:none;stroke-opacity:1"
                   id="g9425">
                  <path
                     d="m 1073.2049,-675.30572 c -1.3032,0.005 -1.3017,-4.53005 2e-4,-4.52544 l 11.221,0.0397 0.01,-19.95655 6.7308,-0.0119 -0.01,19.94315 11.2177,-0.0427 c 1.2679,-0.005 1.2654,4.44252 -2e-4,4.44714 z"
                     style="font-style:normal;font-variant:normal;font-weight:normal;font-stretch:normal;font-size:179.99946594px;line-height:125%;font-family:Arya;-inkscape-font-specification:'Arya, Normal';text-align:start;writing-mode:lr-tb;text-anchor:start;fill:#1a237e;fill-opacity:1;stroke:none;stroke-width:0.64429194;stroke-miterlimit:4;stroke-dasharray:none;stroke-opacity:1"
                     id="path9427"
                     inkscape:connector-curvature="0" />
                </g>
                <path
                   style="opacity:0.95999995;fill:#1a237e;fill-opacity:1;stroke:none;stroke-width:3.59617472;stroke-linecap:butt;stroke-linejoin:miter;stroke-miterlimit:4;stroke-dasharray:none;stroke-dashoffset:0;stroke-opacity:1"
                   d="m -1449.252,151.30663 c -3.5175,0 -7.4638,3.41014 -7.4638,7.64788 l 0,305.97546 c 0,4.23777 3.9463,7.6506 7.4638,7.6506 l 57.6574,0 c 3.5176,0 6.3515,-3.41283 6.3515,-7.6506 l 0,-225.64273 97.8383,0 0,228.91614 c 0,4.25226 2.8311,4.37666 6.3487,4.37666 l 57.6602,0 c 3.5176,0 6.3487,-3.39687 6.3487,-7.64913 l 0,-303.74982 c 0,-4.25224 -2.8311,-7.67773 -6.3487,-7.67773 l -57.6602,0 c -3.5176,0 -6.3487,3.42549 -6.3487,7.67773 l 0,48.65092 -97.8383,0 0,-50.8775 c 0,-4.23774 -2.8339,-7.64788 -6.3515,-7.64788 z"
                   id="path9429"
                   inkscape:connector-curvature="0" />
                <g
                   style="fill:none;fill-opacity:1;stroke:#1a237e;stroke-width:17.81796265;stroke-miterlimit:4;stroke-dasharray:none;stroke-opacity:1"
                   transform="matrix(2.1242118,0,0,2.1247601,-2791.1677,-858.28886)"
                   id="g9431">
                  <path
                     inkscape:connector-curvature="0"
                     style="opacity:0.95999995;fill:none;fill-opacity:1;stroke:#1a237e;stroke-width:17.81796265;stroke-linecap:butt;stroke-linejoin:miter;stroke-miterlimit:4;stroke-dasharray:none;stroke-dashoffset:0;stroke-opacity:1"
                     d="m 685.66407,377.85937 c -42.62976,0.0989 -84.89844,16.8956 -115.73618,46.37415 -32.29964,30.63138 -51.57267,74.4391 -52.10846,118.97552 -1.02293,48.48021 20.34455,96.87249 56.94814,128.70526 36.69646,32.72368 88.30393,47.76886 136.85113,39.92017 47.21789,-7.17808 90.81334,-35.61017 116.0002,-76.24434 25.03126,-38.88054 32.43012,-88.3706 20.41273,-132.98192 -11.39854,-43.03031 -40.60105,-80.95249 -79.43205,-102.77114 -25.17833,-14.37123 -53.97808,-21.73655 -82.93551,-21.9777 z"
                     id="path9433" />
                </g>
                <path
                   style="opacity:0.95999995;fill:none;fill-opacity:1;stroke:url(#linearGradient5291);stroke-width:76.79915619;stroke-linecap:butt;stroke-linejoin:miter;stroke-miterlimit:4;stroke-dasharray:none;stroke-dashoffset:0;stroke-opacity:1"
                   d="m -1343.0859,-72.509454 c -180.0738,0.905299 -346.8983,151.645914 -363.5306,331.454294 -17.8628,155.2481 70.4012,319.39707 214.8008,382.52838 130.9375,60.72523 298.2227,38.83294 404.7396,-59.88259 108.90469,-96.44677 155.54253,-259.8477 106.46591,-397.90996 -43.89441,-133.642096 -168.27791,-238.463395 -308.96771,-253.183714 -17.7342,-2.267032 -35.6311,-3.251754 -53.508,-3.00641 z"
                   id="path9435"
                   inkscape:connector-curvature="0" />
              </g>
            </g>
          </g>
        </g>
      </g>
    </g>
    <g
       transform="translate(2028.5714,-694.28571)"
       id="g5149">
      <path
         d="m -1949.8646,967.36031 277.0016,-96.26013 273.903,-10e-4 -0.01,-619.42245 117.3373,0 0,619.41672 273.9492,-6e-5 286.87409,96.26013 z"
         style="font-style:normal;font-variant:normal;font-weight:normal;font-stretch:normal;font-size:179.99946594px;line-height:125%;font-family:Arya;-inkscape-font-specification:'Arya, Normal';text-align:start;letter-spacing:0px;word-spacing:0px;writing-mode:lr-tb;text-anchor:start;fill:url(#linearGradient5170);fill-opacity:1;stroke:none;stroke-width:1px;stroke-linecap:butt;stroke-linejoin:miter;stroke-opacity:1"
         id="path5153"
         inkscape:connector-curvature="0" />
      <g
         id="g5155"
         style="font-style:normal;font-weight:normal;font-size:40px;line-height:125%;font-family:sans-serif;letter-spacing:0px;word-spacing:0px;fill:url(#linearGradient5174);fill-opacity:1;stroke:none;stroke-width:1px;stroke-linecap:butt;stroke-linejoin:miter;stroke-opacity:1"
         transform="matrix(-17.440736,-0.05047791,-0.00582617,-13.812438,17627.622,-9658.0543)">
        <path
           id="path5157"
           style="font-style:normal;font-variant:normal;font-weight:normal;font-stretch:normal;font-size:179.99946594px;line-height:125%;font-family:Arya;-inkscape-font-specification:'Arya, Normal';text-align:start;writing-mode:lr-tb;text-anchor:start;fill:url(#linearGradient5172);fill-opacity:1"
           d="m 1073.2054,-676.73456 c -1.3032,0.005 -1.3022,-3.10121 10e-4,-3.0966 l 11.221,0.0397 0.01,-19.95655 6.7308,-0.0119 -0.01,19.94315 11.2177,-0.0427 c 1.2679,-0.005 1.2659,3.00936 -10e-4,3.01417 z"
           inkscape:connector-curvature="0" />
      </g>
      <path
         style="opacity:0.95999995;fill:none;fill-opacity:0.88785047;stroke:#643e3e;stroke-width:0;stroke-linecap:butt;stroke-linejoin:miter;stroke-miterlimit:4;stroke-dasharray:none;stroke-dashoffset:0;stroke-opacity:0.9766355"
         d="m -1805.9897,-19.005569 c 10.8387,0 19.5645,8.610474 19.5645,19.30601764 l 0,38.61197636 c 0,10.695485 -8.7258,19.305958 -19.5645,19.305958 -10.8388,0 -19.5646,-8.610473 -19.5646,-19.305958 l 0,-38.61197636 c 0,-10.69554364 8.7258,-19.30601764 19.5646,-19.30601764 z"
         id="path5159"
         inkscape:connector-curvature="0" />
      <path
         style="opacity:0.95999995;fill:none;fill-opacity:0.88785047;stroke:#643e3e;stroke-width:0;stroke-linecap:butt;stroke-linejoin:miter;stroke-miterlimit:4;stroke-dasharray:none;stroke-dashoffset:0;stroke-opacity:0.9766355"
         d="m -1805.9897,-19.005569 c 10.8387,0 19.5645,8.610474 19.5645,19.30601764 l 0,38.61197636 c 0,10.695485 -8.7258,19.305958 -19.5645,19.305958 -10.8388,0 -19.5646,-8.610473 -19.5646,-19.305958 l 0,-38.61197636 c 0,-10.69554364 8.7258,-19.30601764 19.5646,-19.30601764 z"
         id="path5161"
         inkscape:connector-curvature="0" />
      <path
         style="opacity:0.95999995;fill:none;fill-opacity:0.88785047;stroke:#643e3e;stroke-width:0;stroke-linecap:butt;stroke-linejoin:miter;stroke-miterlimit:4;stroke-dasharray:none;stroke-dashoffset:0;stroke-opacity:0.9766355"
         d="m -1805.9897,-19.005569 c 10.8387,0 19.5645,8.610474 19.5645,19.30601764 l 0,38.61197636 c 0,10.695485 -8.7258,19.305958 -19.5645,19.305958 -10.8388,0 -19.5646,-8.610473 -19.5646,-19.305958 l 0,-38.61197636 c 0,-10.69554364 8.7258,-19.30601764 19.5646,-19.30601764 z"
         id="path5163"
         inkscape:connector-curvature="0" />
      <path
         style="opacity:0.95999995;fill:none;fill-opacity:0.88785047;stroke:#643e3e;stroke-width:0;stroke-linecap:butt;stroke-linejoin:miter;stroke-miterlimit:4;stroke-dasharray:none;stroke-dashoffset:0;stroke-opacity:0.9766355"
         d="m -1805.9897,-19.005569 c 10.8387,0 19.5645,8.610474 19.5645,19.30601764 l 0,38.61197636 c 0,10.695485 -8.7258,19.305958 -19.5645,19.305958 -10.8388,0 -19.5646,-8.610473 -19.5646,-19.305958 l 0,-38.61197636 c 0,-10.69554364 8.7258,-19.30601764 19.5646,-19.30601764 z"
         id="path5166"
         inkscape:connector-curvature="0" />
      <path
         id="path5168"
         d="m -1652.1083,-115.68992 c -9.7813,0 -20.7549,9.48267 -20.7549,21.266712 l 0,850.835928 c 0,11.78411 10.9736,21.27428 20.7549,21.27428 l 160.3301,0 c 9.7813,0 17.6616,-9.49017 17.6616,-21.27428 l 0,-627.45207 272.0622,0 0,636.55454 c 0,11.8244 7.8726,12.17034 17.6539,12.17034 l 160.3378,0 c 9.7815,0 17.6539,-9.44581 17.6539,-21.27021 l 0,-844.647008 c 0,-11.824342 -7.8724,-21.349732 -17.6539,-21.349732 l -160.3378,0 c -9.7813,0 -17.6539,9.52539 -17.6539,21.349732 l 0,135.285224 -272.0622,0 0,-141.476744 c 0,-11.784042 -7.8803,-21.266712 -17.6616,-21.266712 z"
         style="opacity:0.95999995;fill:url(#linearGradient5176);fill-opacity:1;stroke:#643e3e;stroke-width:0;stroke-linecap:butt;stroke-linejoin:miter;stroke-miterlimit:4;stroke-dasharray:none;stroke-dashoffset:0;stroke-opacity:0.9766355"
         inkscape:connector-curvature="0" />
    </g>
  </g>
</svg>
